<svg xmlns="http://www.w3.org/2000/svg" version="1.1" xmlns:xlink="http://www.w3.org/1999/xlink" xmlns:svgjs="http://svgjs.dev/svgjs" width="1500" height="1500" viewBox="0 0 1500 1500"><rect width="1500" height="1500" fill="#ffffff"></rect><g transform="matrix(0.6666666666666666,0,0,0.6666666666666666,250.16994382022466,619.6753781167813)"><svg viewBox="0 0 356 93" data-background-color="#ffffff" preserveAspectRatio="xMidYMid meet" height="391" width="1500" xmlns="http://www.w3.org/2000/svg" xmlns:xlink="http://www.w3.org/1999/xlink"><g id="tight-bounds" transform="matrix(1,0,0,1,-0.06049999999996203,-0.003108049337583907)"><svg viewBox="0 0 356.12052 93.0062160986752" height="93.0062160986752" width="356.12052"><g><svg viewBox="0 0 356.12052 93.0062160986752" height="93.0062160986752" width="356.12052"><g><svg viewBox="0 0 356.12052 93.0062160986752" height="93.0062160986752" width="356.12052"><g><path d="M0 93.006v-93.006h356.121v93.006z" fill="#000000" stroke="transparent" stroke-width="0" rx="0%" data-fill-palette-color="tertiary"></path><path d="M3.283 89.723v-86.44h349.554v86.44z" fill="#ffffff" stroke="transparent" stroke-width="0" rx="0%" data-fill-palette-color="quaternary"></path><path d="M9.85 83.156v-73.306h336.421v73.306z" fill="#000000" stroke="transparent" stroke-width="0" data-fill-palette-color="tertiary"></path></g><g transform="matrix(1,0,0,1,19.69974,19.69974)" id="textblocktransform"><svg viewBox="0 0 316.72104 53.60673609867519" height="53.60673609867519" width="316.72104" id="textblock"><g><svg viewBox="0 0 316.72104 53.60673609867519" height="53.60673609867519" width="316.72104"><g transform="matrix(1,0,0,1,0,0)"><svg width="316.72104" viewBox="2 -40.6 320.63 54.27" height="53.60673609867519" data-palette-color="#ffffff"><path d="M20.02-15.09L19.29-17.65 10.3-17.65 10.3-2.93 23.9-2.93 25.66-7.25 27.51-7.25 26.71 0 2 0 2-2.08 5.71-2.64 5.71-34.18 2-34.74 2-36.82 25.63-36.82 26.2-29.57 24.05-29.57 22.73-33.86 10.3-33.86 10.3-20.58 19.29-20.58 20.02-23.17 21.75-23.17 21.75-15.09 20.02-15.09ZM43.85-24.73L43.85-24.73Q46.9-24.73 49.92-23.54L49.92-23.54 49.92-36.06 46.19-36.82 46.19-38.79 53.88-40.6 53.88-3.91Q53.88-2.81 55.11-2.81 56.35-2.81 58.2-3.56L58.2-3.56 58.71-1.27Q55.22 0.56 53.49 0.56L53.49 0.56Q50.97 0.56 50.19-1.07L50.19-1.07Q49.92-1.66 49.92-2.47L49.92-2.47Q48.09-0.85 46.02-0.15 43.94 0.56 41.71 0.56 39.48 0.56 37.4-0.29 35.32-1.15 33.93-2.73L33.93-2.73Q31.22-5.83 31.22-11.5L31.22-11.5Q31.22-16.92 34.42-20.61L34.42-20.61Q37.96-24.73 43.85-24.73ZM43.85-2.86L43.85-2.86Q46.31-2.86 49.92-5.18L49.92-5.18 49.92-19.04Q47.82-21.85 43.23-21.85L43.23-21.85Q39.69-21.85 37.5-18.99L37.5-18.99Q35.45-16.28 35.45-12.01L35.45-12.01Q35.45-8.13 37.4-5.64L37.4-5.64Q39.55-2.86 43.85-2.86ZM85.42-3.32L85.93-1.03Q83.27 0.56 81.68 0.56L81.68 0.56Q80.17 0.56 79.44-0.05L79.44-0.05Q78.12-1.07 78.12-2.47L78.12-2.47 78.12-2.81Q76.02-1.03 73.77-0.23 71.53 0.56 69.84 0.56L69.84 0.56Q66.43 0.56 64.48-1.31 62.54-3.17 62.54-6.96L62.54-6.96 62.54-20.36 59.64-20.85 59.64-23 66.5-24.73 66.5-6.96Q66.5-4.76 68.01-3.56L68.01-3.56Q69.26-2.59 70.94-2.59L70.94-2.59Q73.7-2.59 76.12-4.05L76.12-4.05Q77.22-4.69 78.12-5.54L78.12-5.54 78.12-20.36 74.43-20.85 74.43-22.88 82.08-24.73 82.08-4.13Q82.08-2.81 83.39-2.81L83.39-2.81Q84.32-2.81 85.42-3.32L85.42-3.32ZM109.47-37.38L109.47-37.38Q114.42-37.38 118.55-36.13L118.55-36.13Q120.35-35.57 121.57-34.89L121.57-34.89 121.01-28.37 119.4-28.37Q119.4-31.08 116.74-32.71L116.74-32.71Q113.91-34.45 108.95-34.45L108.95-34.45Q102.53-34.45 98.33-30.13L98.33-30.13Q94.16-25.78 94.16-19.26L94.16-19.26Q94.16-12.35 98.01-7.54L98.01-7.54Q100.63-4.3 104.63-3.03L104.63-3.03Q106.68-2.37 109.29-2.37 111.91-2.37 113.93-2.67 115.96-2.98 117.25-3.66L117.25-3.66Q119.79-5 119.79-8.2L119.79-8.2 121.4-8.2 121.75-1.9Q117.5 0.56 109.22 0.56L109.22 0.56Q100.09 0.56 94.65-4.74L94.65-4.74Q89.45-9.79 89.45-17.77L89.45-17.77Q89.45-26.61 95.6-32.18L95.6-32.18Q101.29-37.38 109.47-37.38ZM127.55-11.87L127.55-11.87Q127.55-14.67 128.52-17.09 129.48-19.51 131.14-21.19L131.14-21.19Q134.56-24.73 139.57-24.73L139.57-24.73Q145.38-24.73 148.65-21.29L148.65-21.29Q151.75-17.99 151.75-12.67L151.75-12.67Q151.75-6.74 148.23-3.03L148.23-3.03Q144.81 0.56 139.78 0.56L139.78 0.56Q134.05 0.56 130.7-2.98L130.7-2.98Q127.55-6.3 127.55-11.87ZM133.8-19.15Q132.83-17.9 132.33-16.21 131.83-14.53 131.83-12.56 131.83-10.6 132.28-8.73 132.73-6.86 133.68-5.42L133.68-5.42Q135.78-2.29 139.74-2.29L139.74-2.29Q143.45-2.29 145.5-4.74L145.5-4.74Q147.52-7.13 147.52-11.21L147.52-11.21Q147.52-18.43 143.4-20.92L143.4-20.92Q141.86-21.85 139.76-21.85 137.66-21.85 136.22-21.13 134.78-20.41 133.8-19.15ZM171.52-21.56L171.52-21.56Q167.25-21.56 163.59-18.97L163.59-18.97 163.59-2.59 166.69-2.03 166.69 0 156.48 0 156.48-2.03 159.63-2.59 159.63-20.36 156.48-20.92 156.48-22.95 163.59-24.73 163.59-21.56Q168.18-24.73 172.23-24.73L172.23-24.73Q177.31-24.73 178.82-21.51L178.82-21.51Q181.31-23.24 183.68-23.99 186.05-24.73 187.71-24.73L187.71-24.73Q191.42-24.73 193.24-22.88 195.06-21.02 195.06-17.19L195.06-17.19 195.06-2.59 198.13-2.03 198.13 0 187.98 0 187.98-2.03 191.08-2.59 191.08-17.19Q191.08-19.38 189.78-20.56L189.78-20.56Q188.68-21.56 187.05-21.56L187.05-21.56Q182.85-21.56 179.36-19.04L179.36-19.04Q179.48-17.82 179.48-17.19L179.48-17.19 179.48-2.59 182.29-2.03 182.29 0 172.62 0 172.62-2.03 175.48-2.59 175.48-17.19Q175.48-19.38 174.26-20.56L174.26-20.56Q173.21-21.56 171.52-21.56ZM214.22 0.56L214.22 0.56Q211.07 0.56 208.26-0.63L208.26-0.63 208.26 11.08 211.36 11.65 211.36 13.67 201.11 13.67 201.11 11.65 204.28 11.08 204.28-20.53 201.11-21.12 201.11-23.1 208.26-24.73 208.26-21.51Q212.53-24.73 216.71-24.73L216.71-24.73Q221.18-24.73 224.03-21.44L224.03-21.44Q226.94-18.09 226.94-12.67L226.94-12.67Q226.94-7.28 223.72-3.54L223.72-3.54Q220.2 0.56 214.22 0.56ZM208.26-19.04L208.26-19.04 208.26-5.1Q210.36-2.29 214.93-2.29L214.93-2.29Q218.44-2.29 220.64-5.08L220.64-5.08Q222.69-7.64 222.69-11.25L222.69-11.25Q222.69-15.72 220.83-18.51L220.83-18.51Q218.83-21.56 215.39-21.56 211.95-21.56 208.26-19.04ZM253.67-3.56L254.11-1.27Q250.54 0.56 248.96 0.56L248.96 0.56Q245.39 0.56 245.39-2.47L245.39-2.47 245.39-3.22Q245.05-2.71 243.52-1.73 242-0.76 241.14-0.37L241.14-0.37Q239.12 0.56 238.07 0.56 237.02 0.56 236.34 0.48 235.65 0.39 234.92 0.15 234.19-0.1 233.48-0.54 232.77-0.98 232.21-1.68L232.21-1.68Q230.96-3.25 230.96-5.76L230.96-5.76Q230.96-9.23 233.43-10.6L233.43-10.6Q234.99-11.5 236.74-11.72 238.48-11.94 239.92-12.06L239.92-12.06Q242.66-12.3 245.39-12.35L245.39-12.35 245.39-17.48Q245.39-19.6 244.86-20.31L244.86-20.31Q243.95-21.56 242.05-21.56L242.05-21.56Q237.8-21.56 233.7-18.8L233.7-18.8 232.28-20.92Q238-24.73 242.51-24.73L242.51-24.73Q246.44-24.73 248.08-22.56L248.08-22.56Q249.35-20.87 249.35-17.77L249.35-17.77 249.35-4.93Q249.35-3.13 250.03-2.88L250.03-2.88Q250.28-2.81 250.67-2.81L250.67-2.81Q251.64-2.81 253.67-3.56L253.67-3.56ZM245.39-5.47L245.39-10.3Q238.46-10.03 236.51-8.91L236.51-8.91Q235.02-8.06 235.02-6.15L235.02-6.15Q235.02-3.39 237.14-2.76L237.14-2.76Q237.73-2.59 238.57-2.59 239.41-2.59 240.53-2.93 241.66-3.27 242.61-3.76L242.61-3.76Q244.42-4.64 245.39-5.47L245.39-5.47ZM270.66-21.56L270.66-21.56Q266.92-21.56 263.16-18.97L263.16-18.97 263.16-2.59 266.26-2.03 266.26 0 256.01 0 256.01-2.03 259.18-2.59 259.18-20.36 256.01-20.92 256.01-22.95 262.75-24.73 262.75-21.56Q267.68-24.73 271.9-24.73L271.9-24.73Q276.98-24.73 278.52-20.51L278.52-20.51Q279.03-19.09 279.03-17.19L279.03-17.19 279.03-2.59 282.13-2.03 282.13 0 271.9 0 271.9-2.03 275.05-2.59 275.05-16.72Q275.05-21.56 270.66-21.56ZM291.8-24.73L291.8-2.59 294.92-2.03 294.92 0 284.67 0 284.67-2.03 287.84-2.59 287.84-20.36 284.67-20.92 284.67-22.95 291.8-24.73ZM287.71-32.19Q287.31-32.62 287.06-33.15 286.82-33.69 286.82-34.22 286.82-34.74 287.06-35.27 287.31-35.79 287.7-36.23L287.7-36.23Q288.6-37.21 289.35-37.21 290.09-37.21 290.61-36.94 291.14-36.67 291.55-36.23L291.55-36.23Q292.46-35.23 292.46-34.46 292.46-33.69 292.2-33.15 291.95-32.62 291.55-32.18L291.55-32.18Q290.63-31.23 289.86-31.23 289.09-31.23 288.6-31.49 288.11-31.76 287.71-32.19ZM298.44-11.87L298.44-11.87Q298.44-14.67 299.4-17.09 300.37-19.51 302.03-21.19L302.03-21.19Q305.44-24.73 310.45-24.73L310.45-24.73Q316.26-24.73 319.53-21.29L319.53-21.29Q322.63-17.99 322.63-12.67L322.63-12.67Q322.63-6.74 319.12-3.03L319.12-3.03Q315.7 0.56 310.67 0.56L310.67 0.56Q304.93 0.56 301.59-2.98L301.59-2.98Q298.44-6.3 298.44-11.87ZM304.69-19.15Q303.71-17.9 303.21-16.21 302.71-14.53 302.71-12.56 302.71-10.6 303.16-8.73 303.61-6.86 304.56-5.42L304.56-5.42Q306.66-2.29 310.62-2.29L310.62-2.29Q314.33-2.29 316.38-4.74L316.38-4.74Q318.41-7.13 318.41-11.21L318.41-11.21Q318.41-18.43 314.28-20.92L314.28-20.92Q312.74-21.85 310.64-21.85 308.54-21.85 307.1-21.13 305.66-20.41 304.69-19.15Z" opacity="1" transform="matrix(1,0,0,1,0,0)" fill="#ffffff" class="wordmark-text-0" data-fill-palette-color="quaternary" id="text-0"></path></svg></g></svg></g></svg></g></svg></g><g></g></svg></g><defs></defs></svg><rect width="356.12052" height="93.0062160986752" fill="none" stroke="none" visibility="hidden"></rect></g></svg></g></svg>